<mxfile host="app.diagrams.net" agent="Mozilla/5.0 (Windows NT 10.0; Win64; x64) AppleWebKit/537.36 (KHTML, like Gecko) Chrome/133.0.0.0 Safari/537.36 OPR/118.0.0.0" version="27.0.6">
  <diagram name="Page-1" id="GUF_4yJGTxvrkHDDAFl8">
    <mxGraphModel dx="690" dy="378" grid="1" gridSize="10" guides="1" tooltips="1" connect="1" arrows="1" fold="1" page="1" pageScale="1" pageWidth="850" pageHeight="1100" math="0" shadow="0">
      <root>
        <mxCell id="0" />
        <mxCell id="1" parent="0" />
        <mxCell id="XGrItoeEw55pWbx2rRpp-17" value="Game" style="swimlane;fontStyle=0;childLayout=stackLayout;horizontal=1;startSize=26;horizontalStack=0;resizeParent=1;resizeParentMax=0;resizeLast=0;collapsible=1;marginBottom=0;align=center;fontSize=14;" vertex="1" parent="1">
          <mxGeometry x="60" y="60" width="160" height="70" as="geometry" />
        </mxCell>
        <mxCell id="XGrItoeEw55pWbx2rRpp-18" value="CurrentAlignment&lt;div&gt;GameConfig&lt;/div&gt;" style="text;strokeColor=none;fillColor=none;spacingLeft=4;spacingRight=4;overflow=hidden;rotatable=0;points=[[0,0.5],[1,0.5]];portConstraint=eastwest;fontSize=12;whiteSpace=wrap;html=1;align=center;" vertex="1" parent="XGrItoeEw55pWbx2rRpp-17">
          <mxGeometry y="26" width="160" height="44" as="geometry" />
        </mxCell>
        <mxCell id="XGrItoeEw55pWbx2rRpp-25" value="CardPile" style="swimlane;fontStyle=0;childLayout=stackLayout;horizontal=1;startSize=26;horizontalStack=0;resizeParent=1;resizeParentMax=0;resizeLast=0;collapsible=1;marginBottom=0;align=center;fontSize=14;" vertex="1" parent="1">
          <mxGeometry x="60" y="210" width="160" height="120" as="geometry" />
        </mxCell>
        <mxCell id="XGrItoeEw55pWbx2rRpp-26" value="[pileCards]&lt;div&gt;[discardedCards]&lt;/div&gt;&lt;div&gt;[deadCards]&lt;/div&gt;&lt;div&gt;bottomCard&lt;/div&gt;&lt;div&gt;[playerTable]&lt;/div&gt;&lt;div&gt;[opponentTable]&lt;br&gt;&lt;div&gt;&lt;br&gt;&lt;/div&gt;&lt;/div&gt;" style="text;strokeColor=none;fillColor=none;spacingLeft=4;spacingRight=4;overflow=hidden;rotatable=0;points=[[0,0.5],[1,0.5]];portConstraint=eastwest;fontSize=12;whiteSpace=wrap;html=1;align=center;" vertex="1" parent="XGrItoeEw55pWbx2rRpp-25">
          <mxGeometry y="26" width="160" height="94" as="geometry" />
        </mxCell>
        <mxCell id="XGrItoeEw55pWbx2rRpp-30" value="BoardGrid" style="swimlane;fontStyle=0;childLayout=stackLayout;horizontal=1;startSize=26;horizontalStack=0;resizeParent=1;resizeParentMax=0;resizeLast=0;collapsible=1;marginBottom=0;align=center;fontSize=14;" vertex="1" parent="1">
          <mxGeometry x="290" y="60" width="160" height="60" as="geometry" />
        </mxCell>
        <mxCell id="XGrItoeEw55pWbx2rRpp-31" value="GlobalEffects" style="text;strokeColor=none;fillColor=none;spacingLeft=4;spacingRight=4;overflow=hidden;rotatable=0;points=[[0,0.5],[1,0.5]];portConstraint=eastwest;fontSize=12;whiteSpace=wrap;html=1;align=center;" vertex="1" parent="XGrItoeEw55pWbx2rRpp-30">
          <mxGeometry y="26" width="160" height="34" as="geometry" />
        </mxCell>
        <mxCell id="XGrItoeEw55pWbx2rRpp-32" value="BoardField" style="swimlane;fontStyle=0;childLayout=stackLayout;horizontal=1;startSize=26;horizontalStack=0;resizeParent=1;resizeParentMax=0;resizeLast=0;collapsible=1;marginBottom=0;align=center;fontSize=14;" vertex="1" parent="1">
          <mxGeometry x="520" y="60" width="160" height="70" as="geometry" />
        </mxCell>
        <mxCell id="XGrItoeEw55pWbx2rRpp-33" value="&lt;div&gt;&lt;span style=&quot;background-color: transparent; color: light-dark(rgb(0, 0, 0), rgb(255, 255, 255));&quot;&gt;Align&lt;/span&gt;&lt;/div&gt;&lt;div&gt;Coordinates&lt;/div&gt;" style="text;strokeColor=none;fillColor=none;spacingLeft=4;spacingRight=4;overflow=hidden;rotatable=0;points=[[0,0.5],[1,0.5]];portConstraint=eastwest;fontSize=12;whiteSpace=wrap;html=1;align=center;" vertex="1" parent="XGrItoeEw55pWbx2rRpp-32">
          <mxGeometry y="26" width="160" height="44" as="geometry" />
        </mxCell>
        <mxCell id="XGrItoeEw55pWbx2rRpp-35" value="BoardCard" style="swimlane;fontStyle=0;childLayout=stackLayout;horizontal=1;startSize=26;horizontalStack=0;resizeParent=1;resizeParentMax=0;resizeLast=0;collapsible=1;marginBottom=0;align=center;fontSize=14;" vertex="1" parent="1">
          <mxGeometry x="520" y="215" width="160" height="110" as="geometry" />
        </mxCell>
        <mxCell id="XGrItoeEw55pWbx2rRpp-36" value="&lt;div&gt;[resistance]&lt;/div&gt;&lt;div&gt;CharacterConfig&lt;/div&gt;&lt;div&gt;Direction&lt;/div&gt;&lt;div&gt;HasAttacked&lt;/div&gt;&lt;div&gt;IsTired&lt;/div&gt;" style="text;strokeColor=none;fillColor=none;spacingLeft=4;spacingRight=4;overflow=hidden;rotatable=0;points=[[0,0.5],[1,0.5]];portConstraint=eastwest;fontSize=12;whiteSpace=wrap;html=1;align=center;" vertex="1" parent="XGrItoeEw55pWbx2rRpp-35">
          <mxGeometry y="26" width="160" height="84" as="geometry" />
        </mxCell>
        <mxCell id="XGrItoeEw55pWbx2rRpp-37" value="CardStats" style="swimlane;fontStyle=0;childLayout=stackLayout;horizontal=1;startSize=26;horizontalStack=0;resizeParent=1;resizeParentMax=0;resizeLast=0;collapsible=1;marginBottom=0;align=center;fontSize=14;" vertex="1" parent="1">
          <mxGeometry x="290" y="215" width="160" height="80" as="geometry" />
        </mxCell>
        <mxCell id="XGrItoeEw55pWbx2rRpp-38" value="baseStat[4]&lt;div&gt;currentTempStat[4]&lt;/div&gt;&lt;div&gt;nextTempStat[4]&lt;/div&gt;" style="text;strokeColor=none;fillColor=none;spacingLeft=4;spacingRight=4;overflow=hidden;rotatable=0;points=[[0,0.5],[1,0.5]];portConstraint=eastwest;fontSize=12;whiteSpace=wrap;html=1;align=center;" vertex="1" parent="XGrItoeEw55pWbx2rRpp-37">
          <mxGeometry y="26" width="160" height="54" as="geometry" />
        </mxCell>
        <mxCell id="XGrItoeEw55pWbx2rRpp-49" value="" style="endArrow=none;html=1;rounded=0;dashed=1;dashPattern=1 2;exitX=0.5;exitY=0;exitDx=0;exitDy=0;entryX=0.504;entryY=1.014;entryDx=0;entryDy=0;entryPerimeter=0;" edge="1" parent="1" source="XGrItoeEw55pWbx2rRpp-35" target="XGrItoeEw55pWbx2rRpp-33">
          <mxGeometry relative="1" as="geometry">
            <mxPoint x="320" y="390" as="sourcePoint" />
            <mxPoint x="630" y="150" as="targetPoint" />
          </mxGeometry>
        </mxCell>
        <mxCell id="XGrItoeEw55pWbx2rRpp-50" value="OccupantCard&lt;div&gt;BackupCard&lt;/div&gt;" style="resizable=0;html=1;whiteSpace=wrap;align=left;verticalAlign=bottom;" connectable="0" vertex="1" parent="XGrItoeEw55pWbx2rRpp-49">
          <mxGeometry x="-1" relative="1" as="geometry" />
        </mxCell>
        <mxCell id="XGrItoeEw55pWbx2rRpp-51" value="OccupiedField" style="resizable=0;html=1;whiteSpace=wrap;align=right;verticalAlign=bottom;" connectable="0" vertex="1" parent="XGrItoeEw55pWbx2rRpp-49">
          <mxGeometry x="1" relative="1" as="geometry">
            <mxPoint y="15" as="offset" />
          </mxGeometry>
        </mxCell>
        <mxCell id="XGrItoeEw55pWbx2rRpp-52" value="" style="endArrow=none;html=1;rounded=0;exitX=1.002;exitY=0.15;exitDx=0;exitDy=0;exitPerimeter=0;entryX=0.001;entryY=0.107;entryDx=0;entryDy=0;entryPerimeter=0;" edge="1" parent="1" source="XGrItoeEw55pWbx2rRpp-37" target="XGrItoeEw55pWbx2rRpp-35">
          <mxGeometry relative="1" as="geometry">
            <mxPoint x="450" y="244" as="sourcePoint" />
            <mxPoint x="490" y="230" as="targetPoint" />
          </mxGeometry>
        </mxCell>
        <mxCell id="XGrItoeEw55pWbx2rRpp-53" value="Stats" style="resizable=0;html=1;whiteSpace=wrap;align=right;verticalAlign=bottom;" connectable="0" vertex="1" parent="XGrItoeEw55pWbx2rRpp-52">
          <mxGeometry x="1" relative="1" as="geometry">
            <mxPoint x="-40" as="offset" />
          </mxGeometry>
        </mxCell>
        <mxCell id="XGrItoeEw55pWbx2rRpp-54" value="" style="endArrow=none;html=1;rounded=0;exitX=0.5;exitY=0;exitDx=0;exitDy=0;entryX=0.504;entryY=1.025;entryDx=0;entryDy=0;entryPerimeter=0;" edge="1" parent="1" source="XGrItoeEw55pWbx2rRpp-25" target="XGrItoeEw55pWbx2rRpp-18">
          <mxGeometry relative="1" as="geometry">
            <mxPoint x="210" y="200" as="sourcePoint" />
            <mxPoint x="370" y="200" as="targetPoint" />
          </mxGeometry>
        </mxCell>
        <mxCell id="XGrItoeEw55pWbx2rRpp-55" value="CardPile" style="resizable=0;html=1;whiteSpace=wrap;align=right;verticalAlign=bottom;" connectable="0" vertex="1" parent="XGrItoeEw55pWbx2rRpp-54">
          <mxGeometry x="1" relative="1" as="geometry">
            <mxPoint x="49" y="79" as="offset" />
          </mxGeometry>
        </mxCell>
        <mxCell id="XGrItoeEw55pWbx2rRpp-56" value="" style="endArrow=none;html=1;rounded=0;exitX=1.003;exitY=0.173;exitDx=0;exitDy=0;exitPerimeter=0;entryX=-0.001;entryY=0.202;entryDx=0;entryDy=0;entryPerimeter=0;" edge="1" parent="1" source="XGrItoeEw55pWbx2rRpp-17" target="XGrItoeEw55pWbx2rRpp-30">
          <mxGeometry relative="1" as="geometry">
            <mxPoint x="170" y="140" as="sourcePoint" />
            <mxPoint x="330" y="140" as="targetPoint" />
          </mxGeometry>
        </mxCell>
        <mxCell id="XGrItoeEw55pWbx2rRpp-57" value="Grid" style="resizable=0;html=1;whiteSpace=wrap;align=right;verticalAlign=bottom;" connectable="0" vertex="1" parent="XGrItoeEw55pWbx2rRpp-56">
          <mxGeometry x="1" relative="1" as="geometry" />
        </mxCell>
        <mxCell id="XGrItoeEw55pWbx2rRpp-58" value="" style="endArrow=none;html=1;rounded=0;exitX=1.003;exitY=0.173;exitDx=0;exitDy=0;exitPerimeter=0;entryX=-0.001;entryY=0.202;entryDx=0;entryDy=0;entryPerimeter=0;" edge="1" parent="1">
          <mxGeometry relative="1" as="geometry">
            <mxPoint x="450" y="70" as="sourcePoint" />
            <mxPoint x="520" y="70" as="targetPoint" />
          </mxGeometry>
        </mxCell>
        <mxCell id="XGrItoeEw55pWbx2rRpp-59" value="Fields[9]" style="resizable=0;html=1;whiteSpace=wrap;align=right;verticalAlign=bottom;" connectable="0" vertex="1" parent="XGrItoeEw55pWbx2rRpp-58">
          <mxGeometry x="1" relative="1" as="geometry" />
        </mxCell>
      </root>
    </mxGraphModel>
  </diagram>
</mxfile>
